<svg fill="#107ACA" role="img" viewBox="0 0 24 24" xmlns="http://www.w3.org/2000/svg"><title>Doctolib</title><path d="M13.93.002C8.217.099 3.643 4.834 3.643 10.556v9.1a4.346 4.346 0 0 0 4.345 4.346h2.456a4.346 4.346 0 0 0 4.345-4.345V10.58h-4.04v9.077a.307.307 0 0 1-.305.305h-2.457a.306.306 0 0 1-.305-.305v-9.1c0-3.468 2.732-6.37 6.199-6.513a6.307 6.307 0 0 1 6.476 6.295v9.318a.307.307 0 0 1-.305.305h-2.457a.307.307 0 0 1-.305-.305v-5.278h-4.04v5.278a4.346 4.346 0 0 0 4.345 4.345h2.457A4.346 4.346 0 0 0 24 19.66V10.34C24 4.545 19.34-.091 13.93.002Z"/></svg>
