<svg fill="#F22F46" role="img" viewBox="0 0 24 24" xmlns="http://www.w3.org/2000/svg"><title>Twilio</title><path d="M12 0C5.381 0 0 5.381 0 12s5.381 12 12 12 12-5.381 12-12S18.619 0 12 0zm0 20.756c-4.831 0-8.756-3.925-8.756-8.756S7.169 3.244 12 3.244s8.756 3.925 8.756 8.756-3.925 8.756-8.756 8.756zm5.009-11.887c0 1.187-.962 2.149-2.15 2.149a2.148 2.148 0 0 1-2.148-2.149 2.148 2.148 0 0 1 2.149-2.148 2.148 2.148 0 0 1 2.149 2.148zm0 6.262c0 1.187-.962 2.149-2.15 2.149a2.148 2.148 0 0 1-2.148-2.15 2.148 2.148 0 0 1 2.149-2.148 2.148 2.148 0 0 1 2.149 2.149zM8.869 8.87c0 1.187-.962 2.149-2.149 2.149a2.149 2.149 0 0 1-2.149-2.15A2.149 2.149 0 0 1 6.72 6.722a2.149 2.149 0 0 1 2.149 2.148zm0 6.262c0 1.187-.962 2.149-2.149 2.149a2.149 2.149 0 0 1-2.149-2.15 2.149 2.149 0 0 1 2.149-2.148 2.149 2.149 0 0 1 2.149 2.149z"/></svg>